<svg width="66" height="55" viewBox="0 0 66 55" fill="none" xmlns="http://www.w3.org/2000/svg">
<g id="full_volume">
<path id="Volume" d="M38.5 47.4948V43.9427C42.9458 42.8733 46.5781 40.8203 49.3969 37.7839C52.2156 34.7474 53.625 31.3003 53.625 27.4427C53.625 23.5851 52.2271 20.1285 49.4313 17.0729C46.6354 14.0174 42.9917 11.974 38.5 10.9427V7.39062C44.1833 8.46007 48.8125 10.8568 52.3875 14.5807C55.9625 18.3047 57.75 22.592 57.75 27.4427C57.75 32.2934 55.9625 36.5807 52.3875 40.3047C48.8125 44.0286 44.1833 46.4254 38.5 47.4948ZM8.25 34.375V20.625H19.25L33 9.16667V45.8333L19.25 34.375H8.25ZM37.125 37.125V17.8177C39.6 18.467 41.5938 19.6892 43.1063 21.4844C44.6188 23.2795 45.375 25.2847 45.375 27.5C45.375 29.7535 44.6188 31.7587 43.1063 33.5156C41.5938 35.2726 39.6 36.4757 37.125 37.125ZM28.875 17.875L21.1063 24.0625H12.375V30.9375H21.1063L28.875 37.1823V17.875Z" fill="#C7B1EF"/>
<path id="mute-volume" d="M14.45 5.6225L58 50" stroke="#C7B1EF" stroke-width="4"/>
</g>
</svg>
